<?xml version="1.0" encoding="utf-8"?>
<!-- Generator: Adobe Illustrator 17.1.0, SVG Export Plug-In . SVG Version: 6.00 Build 0)  -->
<!DOCTYPE svg PUBLIC "-//W3C//DTD SVG 1.1//EN" "http://www.w3.org/Graphics/SVG/1.1/DTD/svg11.dtd">
<svg version="1.1" id="Layer_1" xmlns="http://www.w3.org/2000/svg" xmlns:xlink="http://www.w3.org/1999/xlink" x="0px" y="0px"
	 viewBox="0 0 150 150" enable-background="new 0 0 150 150" xml:space="preserve">
<g>
	<g>
		<g>
			<g>
				<path fill="#82B641" d="M54.5,123.8h41.1c0,0-3.7,11.7-11,14.7C77.1,141.6,60.1,143.4,54.5,123.8z"/>
			</g>
		</g>
	</g>
	<g>
		<g>
			<g>
				<polyline fill="#56A3DA" points="95.6,30.4 52.4,98.8 95.4,124.7 				"/>
			</g>
		</g>
	</g>
	<g>
		<g>
			<g>
				<path fill="#231F20" d="M53.1,96.9l1.4-1.2c-0.2,0-2.3-0.7-4,0.2c-0.5,0.5-1.2,1.2-1.4,2.6c-0.2,2.3,1.6,4.2,4.2,4.4
					c2.6,0.2,5.4-1.2,6.1-5.4c0.5-3.3-1.2-6.5-4.4-8.6c-3.5-2.1-9.1-2.8-14.7,1.6c-4.9,4-7,12.1-4.7,19.1c2.8,8.6,11.4,14,23.6,14.2
					c11.4,0.2,21.5-4.2,28.5-12.6c7.7-9.6,10.7-23.1,7.7-35.3c-2.1-8.4-6.8-20.6-18.2-30.4c-10.7-9.3-24.8-14.7-41.8-15.6l-0.2,2.3
					c16.3,0.9,30.1,5.8,40.4,14.9c10.7,9.6,15.4,21,17.3,29.2c2.8,11.4,0,24.3-7.2,33.4c-4.4,5.6-12.8,12.1-26.6,11.9
					c-15.2-0.5-19.9-8.2-21.5-12.6c-2.1-6.1-0.2-13.3,3.7-16.6c4.7-3.5,9.1-3,11.9-1.4c2.3,1.4,3.7,4,3.3,6.1
					c-0.5,2.8-2.1,3.5-3.5,3.3c-1.2-0.2-2.1-0.9-2.1-2.1c0-0.5,0.2-0.7,0.2-0.7c0.5-0.2,1.4-0.2,1.9,0l1.6,0.5v-1.6"/>
			</g>
			<g>
				<line fill="none" x1="55.4" y1="23.6" x2="53.1" y2="23.6"/>
			</g>
		</g>
	</g>
	<g>
		<g>
			<g>
				<path fill="#231F20" d="M94.7,23.9c0,2.3-7.5,5.6-19.6,5.6s-19.6-3.3-19.6-5.6s7.5-5.6,19.6-5.6C87.2,18.5,94.7,21.8,94.7,23.9z
					 M75,15.9c-10.7,0-22,2.8-22,7.9s11.4,7.9,22,7.9c10.7,0,22-2.8,22-7.9S85.6,15.9,75,15.9z"/>
			</g>
		</g>
	</g>
	<g>
		<g>
			<g>
				<path fill="#231F20" d="M94.7,23.9v95c0,11.4-9.1,21-20.1,21c-9.3,0-17.7-7-19.6-16.3l-2.3,0.5c0.2,0.5,0.2,1.2,0.5,1.6v0.2
					c2.8,9.6,11.7,16.3,21.5,16.3c12.4,0,22.4-10.5,22.4-23.4v-95H94.7z"/>
			</g>
		</g>
	</g>
	<g>
		<g>
			<g>
				<g>
					<polygon fill="#231F20" points="106.8,11.9 27.2,136.9 27.9,137.4 107.3,12.4 					"/>
					<polygon fill="#231F20" points="28.1,138.5 26,137.1 106.3,10.8 108.7,12.2 					"/>
				</g>
			</g>
		</g>
		<g>
			<g>
				<g>

						<rect x="19.2" y="112.8" transform="matrix(0.8526 0.5226 -0.5226 0.8526 70.4132 -23.3934)" fill="#231F20" width="114.9" height="0.7"/>
					<polygon fill="#231F20" points="125.5,144.6 26.2,83.6 27.4,81.5 28.3,82 126.9,142.5 					"/>
				</g>
			</g>
		</g>
		<g>
			<g>
				<g>
					<polygon fill="#231F20" points="35.1,23.4 35.1,123.8 35.1,124 35.6,124 94.9,124 94.9,123.3 35.6,123.3 35.8,123.8 35.8,23.4
											"/>
				</g>
				<g>
					<polygon fill="#231F20" points="35.8,125.2 33.9,125.2 33.9,123.3 33.9,122.4 33.9,22.5 37,22.5 37,122.4 95.8,122.4
						95.8,125.2 37,125.2 					"/>
				</g>
			</g>
		</g>
		<g>
			<g>
				<g>
					<rect x="35.6" y="87.8" fill="#231F20" width="60.5" height="0.7"/>
					<path fill="#231F20" d="M96.5,89H35.3v-1.6h61.2V89z M36,88.1h59.6l0,0H36L36,88.1z"/>
				</g>
			</g>
		</g>
		<g>
			<g>
				<g>
					<rect x="36.5" y="99.5" fill="#231F20" width="16.6" height="0.7"/>
					<rect x="35.8" y="98.8" fill="#231F20" width="18.2" height="2.6"/>
				</g>
			</g>
		</g>
	</g>
	<g>
		<g>
			<g>
				<g>
					<path fill="#9D1F60" d="M65,64.5c0,1.4-1.2,2.3-2.3,2.3l0,0c-1.4,0-2.3-1.2-2.3-2.3l0,0c0-1.4,1.2-2.3,2.3-2.3l0,0
						C63.8,61.9,65,63.1,65,64.5L65,64.5z"/>
				</g>
			</g>
		</g>
		<g>
			<g>
				<g>
					<path fill="#9D1F60" d="M72.2,50.9c0,2.3-1.9,4.2-4.2,4.2l0,0c-2.3,0-4.2-1.9-4.2-4.2l0,0c0-2.3,1.9-4.2,4.2-4.2l0,0
						C70.4,46.7,72.2,48.6,72.2,50.9L72.2,50.9z"/>
				</g>
			</g>
		</g>
		<g>
			<g>
				<g>
					<path fill="#9D1F60" d="M62.2,45.3c0,0.9-0.7,1.6-1.6,1.6l0,0c-0.9,0-1.6-0.7-1.6-1.6l0,0c0-0.9,0.7-1.6,1.6-1.6l0,0
						C61.5,43.7,62.2,44.4,62.2,45.3L62.2,45.3z"/>
				</g>
			</g>
		</g>
		<g>
			<g>
				<g>
					<path fill="#9D1F60" d="M81.8,24.8c0,0.9-0.7,1.6-1.6,1.6l0,0c-0.9,0-1.6-0.7-1.6-1.6l0,0c0-0.9,0.7-1.6,1.6-1.6l0,0
						C81.1,23.2,81.8,23.9,81.8,24.8L81.8,24.8z"/>
				</g>
			</g>
		</g>
		<g>
			<g>
				<g>
					<path fill="#9D1F60" d="M63.4,23.9c0,0.5-0.5,0.9-0.9,0.9l0,0c-0.5,0-0.9-0.5-0.9-0.9l0,0c0-0.5,0.5-0.9,0.9-0.9l0,0
						C63.1,22.9,63.4,23.4,63.4,23.9L63.4,23.9z"/>
				</g>
			</g>
		</g>
		<g>
			<g>
				<g>
					<path fill="#9D1F60" d="M75,23.9c0,1.9-1.4,3.3-3.3,3.3l0,0c-1.9,0-3.3-1.4-3.3-3.3l0,0c0-1.9,1.4-3.3,3.3-3.3l0,0
						C73.6,20.6,75,22,75,23.9L75,23.9z"/>
				</g>
			</g>
		</g>
		<g>
			<g>
				<g>
					<path fill="#9D1F60" d="M78.8,39.3c0,0.7-0.7,1.4-1.4,1.4l0,0c-0.7,0-1.4-0.7-1.4-1.4l0,0c0-0.7,0.7-1.4,1.4-1.4l0,0
						C78.1,37.9,78.8,38.3,78.8,39.3L78.8,39.3z"/>
				</g>
			</g>
		</g>
		<g>
			<g>
				<g>
					<path fill="#9D1F60" d="M69.4,9.1c0,2.6-2.1,4.7-4.7,4.7l0,0c-2.6,0-4.7-2.1-4.7-4.7l0,0c0-2.6,2.1-4.7,4.7-4.7l0,0
						C67.3,4.5,69.4,6.6,69.4,9.1L69.4,9.1z"/>
				</g>
			</g>
		</g>
	</g>
	<g>
		<g>
			<g>
				<path fill="#FFFFFE" d="M81.6,67.3c0,0.9-0.9,1.9-1.9,1.9l0,0c-0.9,0-1.9-0.9-1.9-1.9l0,0c0-0.9,0.9-1.9,1.9-1.9l0,0
					C80.6,65.4,81.6,66.1,81.6,67.3L81.6,67.3z"/>
			</g>
		</g>
	</g>
	<g>
		<g>
			<g>
				<path fill="#FFFFFE" d="M76.2,75.2c0,1.4-1.2,2.8-2.8,2.8l0,0c-1.6,0-2.8-1.2-2.8-2.8l0,0c0-1.6,1.2-2.8,2.8-2.8l0,0
					C75,72.4,76.2,73.6,76.2,75.2L76.2,75.2z"/>
			</g>
		</g>
	</g>
	<g>
		<g>
			<g>
				<path fill="#FFFFFE" d="M82.3,76.2c0,0.7-0.5,1.2-1.2,1.2l0,0c-0.5,0-0.9-0.5-0.9-1.2l0,0c0-0.5,0.5-0.9,0.9-0.9l0,0
					C81.8,75.2,82.3,75.7,82.3,76.2L82.3,76.2z"/>
			</g>
		</g>
	</g>
	<g>
		<g>
			<g>
				<path fill="#FFFFFE" d="M74.3,96.5c0,0.5-0.5,1.2-1.2,1.2l0,0c-0.5,0-1.2-0.5-1.2-1.2l0,0c0-0.5,0.5-0.9,1.2-0.9l0,0
					C73.9,95.3,74.3,95.8,74.3,96.5L74.3,96.5z"/>
			</g>
		</g>
	</g>
	<g>
		<g>
			<g>
				<rect x="53.1" y="24.8" fill="#231F20" width="2.3" height="101.1"/>
			</g>
		</g>
	</g>
</g>
</svg>
