<?xml version="1.0" encoding="utf-8"?>
<!-- Generator: Adobe Illustrator 17.1.0, SVG Export Plug-In . SVG Version: 6.00 Build 0)  -->
<svg version="1.2" baseProfile="tiny" id="kstf-logo" xmlns="http://www.w3.org/2000/svg" xmlns:xlink="http://www.w3.org/1999/xlink"
	 x="0px" y="0px" viewBox="0 0 132.7 60" xml:space="preserve">
<g>
	<g>
		<g>
			<g>
				<g>
					<path fill="#82B641" d="M12.1,51.1h17.6c0,0-1.6,5-4.7,6.3C21.8,58.7,14.5,59.5,12.1,51.1z"/>
				</g>
			</g>
		</g>
		<g>
			<g>
				<g>
					<polyline fill="#56A3DA" points="29.7,11.1 11.2,40.4 29.6,51.5 					"/>
				</g>
			</g>
		</g>
		<g>
			<g>
				<g>
					<path fill="#231F20" d="M11.5,39.6l0.6-0.5c-0.1,0-1-0.3-1.7,0.1c-0.2,0.2-0.5,0.5-0.6,1.1c-0.1,1,0.7,1.8,1.8,1.9
						c1.1,0.1,2.3-0.5,2.6-2.3c0.2-1.4-0.5-2.8-1.9-3.7c-1.5-0.9-3.9-1.2-6.3,0.7c-2.1,1.7-3,5.2-2,8.2c1.2,3.7,4.9,6,10.1,6.1
						c4.9,0.1,9.2-1.8,12.2-5.4c3.3-4.1,4.6-9.9,3.3-15.1c-0.9-3.6-2.9-8.8-7.8-13c-4.6-4-10.6-6.3-17.9-6.7l-0.1,1
						c7,0.4,12.9,2.5,17.3,6.4c4.6,4.1,6.6,9,7.4,12.5c1.2,4.9,0,10.4-3.1,14.3c-1.9,2.4-5.5,5.2-11.4,5.1c-6.5-0.2-8.5-3.5-9.2-5.4
						c-0.9-2.6-0.1-5.7,1.6-7.1c2-1.5,3.9-1.3,5.1-0.6c1,0.6,1.6,1.7,1.4,2.6c-0.2,1.2-0.9,1.5-1.5,1.4c-0.5-0.1-0.9-0.4-0.9-0.9
						c0-0.2,0.1-0.3,0.1-0.3c0.2-0.1,0.6-0.1,0.8,0l0.7,0.2v-0.7"/>
				</g>
				<g>
					<line fill="#231F20" x1="12.5" y1="8.2" x2="11.5" y2="8.2"/>
				</g>
			</g>
		</g>
		<g>
			<g>
				<g>
					<path fill="#231F20" d="M29.3,8.3c0,1-3.2,2.4-8.4,2.4c-5.2,0-8.4-1.4-8.4-2.4c0-1,3.2-2.4,8.4-2.4C26.1,6,29.3,7.4,29.3,8.3z
						 M20.9,4.9c-4.6,0-9.4,1.2-9.4,3.4c0,2.2,4.9,3.4,9.4,3.4c4.6,0,9.4-1.2,9.4-3.4C30.3,6.1,25.4,4.9,20.9,4.9z"/>
				</g>
			</g>
		</g>
		<g>
			<g>
				<g>
					<path fill="#231F20" d="M29.3,8.3V49c0,4.9-3.9,9-8.6,9c-4,0-7.6-3-8.4-7l-1,0.2c0.1,0.2,0.1,0.5,0.2,0.7c0,0,0,0.1,0,0.1
						c1.2,4.1,5,7,9.2,7c5.3,0,9.6-4.5,9.6-10V8.3H29.3z"/>
				</g>
			</g>
		</g>
		<g>
			<g>
				<g>
					<g>
						<polygon fill="#231F20" points="34.5,3.2 0.4,56.7 0.7,56.9 34.7,3.4 						"/>
						<polygon fill="#231F20" points="0.8,57.4 -0.1,56.8 34.3,2.7 35.3,3.3 						"/>
					</g>
				</g>
			</g>
			<g>
				<g>
					<g>
						
							<rect x="-3.1" y="46.4" transform="matrix(-0.8526 -0.5226 0.5226 -0.8526 15.6017 97.4448)" fill="#231F20" width="49.2" height="0.3"/>
						<polygon fill="#231F20" points="42.5,60 0,33.9 0.5,33 0.9,33.2 43.1,59.1 						"/>
					</g>
				</g>
			</g>
			<g>
				<g>
					<g>
						<polygon fill="#231F20" points="3.8,8.1 3.8,51.1 3.8,51.2 4,51.2 29.4,51.2 29.4,50.9 4,50.9 4.1,51.1 4.1,8.1 						"/>
					</g>
					<g>
						<polygon fill="#231F20" points="4.1,51.7 3.3,51.7 3.3,50.9 3.3,50.5 3.3,7.7 4.6,7.7 4.6,50.5 29.8,50.5 29.8,51.7 4.6,51.7 
													"/>
					</g>
				</g>
			</g>
			<g>
				<g>
					<g>
						<rect x="4" y="35.7" fill="#231F20" width="25.9" height="0.3"/>
						<path fill="#231F20" d="M30.1,36.2H3.9v-0.7h26.2V36.2z M4.2,35.8h25.5v0L4.2,35.8L4.2,35.8z"/>
					</g>
				</g>
			</g>
			<g>
				<g>
					<g>
						<rect x="4.4" y="40.7" fill="#231F20" width="7.1" height="0.3"/>
						<rect x="4.1" y="40.4" fill="#231F20" width="7.8" height="1.1"/>
					</g>
				</g>
			</g>
		</g>
		<g>
			<g>
				<g>
					<g>
						<path fill="#9D1F60" d="M16.6,25.7c0,0.6-0.5,1-1,1l0,0c-0.6,0-1-0.5-1-1l0,0c0-0.6,0.5-1,1-1l0,0
							C16.1,24.6,16.6,25.1,16.6,25.7L16.6,25.7z"/>
					</g>
				</g>
			</g>
			<g>
				<g>
					<g>
						<path fill="#9D1F60" d="M19.7,19.9c0,1-0.8,1.8-1.8,1.8l0,0c-1,0-1.8-0.8-1.8-1.8l0,0c0-1,0.8-1.8,1.8-1.8l0,0
							C18.9,18.1,19.7,18.9,19.7,19.9L19.7,19.9z"/>
					</g>
				</g>
			</g>
			<g>
				<g>
					<g>
						<path fill="#9D1F60" d="M15.4,17.5c0,0.4-0.3,0.7-0.7,0.7l0,0c-0.4,0-0.7-0.3-0.7-0.7l0,0c0-0.4,0.3-0.7,0.7-0.7l0,0
							C15.1,16.8,15.4,17.1,15.4,17.5L15.4,17.5z"/>
					</g>
				</g>
			</g>
			<g>
				<g>
					<g>
						<path fill="#9D1F60" d="M23.8,8.7c0,0.4-0.3,0.7-0.7,0.7l0,0c-0.4,0-0.7-0.3-0.7-0.7l0,0c0-0.4,0.3-0.7,0.7-0.7l0,0
							C23.5,8,23.8,8.3,23.8,8.7L23.8,8.7z"/>
					</g>
				</g>
			</g>
			<g>
				<g>
					<g>
						<path fill="#9D1F60" d="M15.9,8.3c0,0.2-0.2,0.4-0.4,0.4l0,0c-0.2,0-0.4-0.2-0.4-0.4l0,0c0-0.2,0.2-0.4,0.4-0.4l0,0
							C15.8,7.9,15.9,8.1,15.9,8.3L15.9,8.3z"/>
					</g>
				</g>
			</g>
			<g>
				<g>
					<g>
						<path fill="#9D1F60" d="M20.9,8.3c0,0.8-0.6,1.4-1.4,1.4l0,0c-0.8,0-1.4-0.6-1.4-1.4l0,0c0-0.8,0.6-1.4,1.4-1.4l0,0
							C20.3,6.9,20.9,7.5,20.9,8.3L20.9,8.3z"/>
					</g>
				</g>
			</g>
			<g>
				<g>
					<g>
						<path fill="#9D1F60" d="M22.5,14.9c0,0.3-0.3,0.6-0.6,0.6l0,0c-0.3,0-0.6-0.3-0.6-0.6l0,0c0-0.3,0.3-0.6,0.6-0.6l0,0
							C22.2,14.3,22.5,14.5,22.5,14.9L22.5,14.9z"/>
					</g>
				</g>
			</g>
			<g>
				<g>
					<g>
						<path fill="#9D1F60" d="M18.5,2c0,1.1-0.9,2-2,2l0,0c-1.1,0-2-0.9-2-2l0,0c0-1.1,0.9-2,2-2l0,0C17.6,0,18.5,0.9,18.5,2L18.5,2
							z"/>
					</g>
				</g>
			</g>
		</g>
		<g>
			<g>
				<g>
					<path fill="#FFFFFE" d="M23.7,26.9c0,0.4-0.4,0.8-0.8,0.8l0,0c-0.4,0-0.8-0.4-0.8-0.8l0,0c0-0.4,0.4-0.8,0.8-0.8l0,0
						C23.3,26.1,23.7,26.4,23.7,26.9L23.7,26.9z"/>
				</g>
			</g>
		</g>
		<g>
			<g>
				<g>
					<path fill="#FFFFFE" d="M21.4,30.3c0,0.6-0.5,1.2-1.2,1.2l0,0c-0.7,0-1.2-0.5-1.2-1.2l0,0c0-0.7,0.5-1.2,1.2-1.2l0,0
						C20.9,29.1,21.4,29.6,21.4,30.3L21.4,30.3z"/>
				</g>
			</g>
		</g>
		<g>
			<g>
				<g>
					<path fill="#FFFFFE" d="M24,30.7c0,0.3-0.2,0.5-0.5,0.5l0,0c-0.2,0-0.4-0.2-0.4-0.5l0,0c0-0.2,0.2-0.4,0.4-0.4l0,0
						C23.8,30.3,24,30.5,24,30.7L24,30.7z"/>
				</g>
			</g>
		</g>
		<g>
			<g>
				<g>
					<path fill="#FFFFFE" d="M20.6,39.4c0,0.2-0.2,0.5-0.5,0.5l0,0c-0.2,0-0.5-0.2-0.5-0.5l0,0c0-0.2,0.2-0.4,0.5-0.4l0,0
						C20.4,38.9,20.6,39.1,20.6,39.4L20.6,39.4z"/>
				</g>
			</g>
		</g>
		<g>
			<g>
				<g>
					<rect x="11.5" y="8.7" fill="#231F20" width="1" height="43.3"/>
				</g>
			</g>
		</g>
	</g>
	<g>
		<g>
			<path fill="#231F20" d="M43.4,16.8L43.4,16.8l4.4-6.9h3.8L47,17.3l5.2,9.8h-3.9l-3.5-7.1l-1.3,2v5.1H40V9.9h3.5V16.8z"/>
		</g>
		<g>
			<path fill="#231F20" d="M55.7,22.2c0,0.4,0,0.8,0.1,1.1c0.1,0.3,0.2,0.6,0.4,0.8c0.2,0.2,0.4,0.4,0.7,0.5
				c0.3,0.1,0.7,0.2,1.1,0.2c0.5,0,1-0.2,1.4-0.5c0.4-0.3,0.6-0.9,0.6-1.6c0-0.4-0.1-0.7-0.2-1c-0.1-0.3-0.3-0.5-0.5-0.8
				c-0.2-0.2-0.6-0.4-1-0.6c-0.4-0.2-0.9-0.4-1.5-0.6c-0.8-0.3-1.4-0.5-2-0.8c-0.6-0.3-1-0.7-1.4-1.1c-0.4-0.4-0.7-0.9-0.8-1.4
				c-0.2-0.5-0.3-1.2-0.3-1.9c0-1.7,0.5-3,1.4-3.8c0.9-0.8,2.3-1.3,3.9-1.3c0.8,0,1.5,0.1,2.1,0.3c0.7,0.2,1.2,0.4,1.7,0.8
				c0.5,0.4,0.8,0.9,1.1,1.4c0.3,0.6,0.4,1.3,0.4,2.1v0.5h-3.3c0-0.8-0.1-1.5-0.4-1.9c-0.3-0.4-0.8-0.7-1.4-0.7
				c-0.4,0-0.7,0.1-1,0.2c-0.3,0.1-0.5,0.3-0.6,0.4c-0.2,0.2-0.3,0.4-0.3,0.6C56,13.6,56,13.9,56,14.1c0,0.5,0.1,1,0.3,1.3
				c0.2,0.4,0.7,0.7,1.4,1l2.7,1.2c0.7,0.3,1.2,0.6,1.6,0.9c0.4,0.3,0.8,0.7,1,1c0.2,0.4,0.4,0.8,0.5,1.2c0.1,0.4,0.1,0.9,0.1,1.4
				c0,1.8-0.5,3.1-1.6,4c-1.1,0.8-2.5,1.2-4.4,1.2c-2,0-3.4-0.4-4.2-1.3c-0.8-0.9-1.3-2.1-1.3-3.7v-0.7h3.5V22.2z"/>
		</g>
		<g>
			<path fill="#231F20" d="M75.5,12.7h-3.8v14.4h-3.5V12.7h-3.8V9.9h11V12.7z"/>
		</g>
		<g>
			<path fill="#231F20" d="M86.6,9.9v2.8h-6.1v4.1h5.8v2.8h-5.8v7.5H77V9.9H86.6z"/>
		</g>
	</g>
	<g>
		<g>
			<path fill="#231F20" d="M41.5,34L41.5,34l2.1-3.3h1.8l-2.2,3.5l2.5,4.7h-1.9l-1.7-3.4l-0.6,0.9v2.4h-1.6v-8.2h1.6V34z"/>
		</g>
		<g>
			<path fill="#231F20" d="M47.5,32.8v0.7h0c0.2-0.3,0.4-0.5,0.7-0.7c0.3-0.1,0.6-0.2,0.9-0.2c0.5,0,0.9,0.1,1.2,0.4
				c0.3,0.3,0.4,0.7,0.4,1.3v4.6h-1.6v-4.2c0-0.3-0.1-0.5-0.2-0.7c-0.1-0.1-0.3-0.2-0.5-0.2c-0.6,0-0.8,0.3-0.8,1v4.1H46v-6.2H47.5z
				"/>
		</g>
		<g>
			<path fill="#231F20" d="M51.6,34.4c0.1-0.4,0.2-0.7,0.4-1c0.2-0.3,0.4-0.5,0.7-0.6c0.3-0.1,0.7-0.2,1.1-0.2
				c0.5,0,0.9,0.1,1.2,0.2c0.3,0.1,0.6,0.3,0.7,0.6c0.2,0.3,0.3,0.6,0.4,1c0.1,0.4,0.1,0.9,0.1,1.4c0,0.5,0,1-0.1,1.4
				c-0.1,0.4-0.2,0.7-0.4,1c-0.2,0.3-0.4,0.5-0.7,0.6C54.8,39,54.4,39,53.9,39c-0.5,0-0.9-0.1-1.2-0.2c-0.3-0.1-0.6-0.3-0.7-0.6
				c-0.2-0.3-0.3-0.6-0.4-1c-0.1-0.4-0.1-0.9-0.1-1.4C51.5,35.3,51.5,34.8,51.6,34.4z M53.1,36.7c0,0.3,0.1,0.5,0.1,0.7
				c0.1,0.2,0.1,0.3,0.3,0.4c0.1,0.1,0.3,0.2,0.5,0.2c0.3,0,0.5-0.2,0.7-0.5c0.1-0.3,0.2-0.9,0.2-1.7c0-0.8-0.1-1.3-0.2-1.7
				c-0.1-0.3-0.3-0.5-0.7-0.5c-0.2,0-0.3,0.1-0.5,0.2c-0.1,0.1-0.2,0.3-0.3,0.4c-0.1,0.2-0.1,0.4-0.1,0.7c0,0.3,0,0.6,0,0.9
				C53.1,36.1,53.1,36.4,53.1,36.7z"/>
		</g>
		<g>
			<path fill="#231F20" d="M58.4,32.8l0.7,4.4h0l0.8-4.4h1.7l0.8,4.4h0l0.7-4.4h1.5l-1.3,6.2h-1.8l-0.8-4.4h0L60,38.9h-1.8l-1.3-6.2
				H58.4z"/>
		</g>
		<g>
			<path fill="#231F20" d="M67,30.7v8.2h-1.6v-8.2H67z"/>
		</g>
		<g>
			<path fill="#231F20" d="M69.5,36.6c0,0.2,0,0.4,0,0.5c0,0.2,0.1,0.3,0.1,0.5c0.1,0.1,0.1,0.2,0.2,0.3C70,38,70.1,38,70.2,38
				c0.3,0,0.5-0.1,0.6-0.3c0.1-0.2,0.2-0.5,0.3-0.9h1.4c0,0.7-0.2,1.3-0.6,1.6C71.6,38.8,71,39,70.3,39c-0.6,0-1-0.1-1.3-0.3
				c-0.3-0.2-0.6-0.4-0.7-0.8c-0.2-0.3-0.2-0.7-0.3-1.1c0-0.4-0.1-0.8-0.1-1.2c0-0.4,0-0.8,0.1-1.2c0.1-0.4,0.2-0.7,0.3-1
				c0.2-0.3,0.4-0.5,0.7-0.7c0.3-0.2,0.7-0.3,1.3-0.3c0.5,0,0.8,0.1,1.1,0.2c0.3,0.1,0.5,0.4,0.7,0.6c0.2,0.3,0.3,0.6,0.3,1
				c0.1,0.4,0.1,0.8,0.1,1.3v0.4h-3.1V36.6z M71,34.5c0-0.2-0.1-0.3-0.1-0.5c-0.1-0.1-0.1-0.2-0.2-0.3c-0.1-0.1-0.2-0.1-0.4-0.1
				c-0.2,0-0.3,0-0.4,0.1c-0.1,0.1-0.2,0.2-0.2,0.3c-0.1,0.1-0.1,0.2-0.1,0.4c0,0.1,0,0.3,0,0.4v0.2h1.6C71.1,34.9,71,34.7,71,34.5z
				"/>
		</g>
		<g>
			<path fill="#231F20" d="M74.6,37.1c0,0.3,0.1,0.5,0.2,0.6c0.1,0.2,0.3,0.2,0.6,0.2c0.2,0,0.4-0.1,0.6-0.2
				c0.1-0.1,0.2-0.3,0.2-0.5c0-0.2-0.1-0.3-0.2-0.5c-0.1-0.1-0.2-0.2-0.4-0.2l-1.1-0.4c-0.4-0.2-0.8-0.4-1-0.6
				c-0.2-0.3-0.3-0.6-0.3-1.1c0-0.3,0-0.5,0.1-0.7c0.1-0.2,0.2-0.4,0.4-0.6c0.2-0.2,0.4-0.3,0.7-0.4c0.3-0.1,0.6-0.1,1-0.1
				c0.7,0,1.2,0.2,1.6,0.5c0.3,0.3,0.5,0.7,0.5,1.3v0.3h-1.4c0-0.3-0.1-0.6-0.2-0.7c-0.1-0.1-0.3-0.2-0.5-0.2
				c-0.2,0-0.4,0.1-0.5,0.2c-0.1,0.1-0.2,0.3-0.2,0.5c0,0.2,0,0.3,0.1,0.4c0.1,0.1,0.3,0.2,0.5,0.3l0.9,0.3c0.5,0.2,0.8,0.4,1.1,0.7
				c0.2,0.3,0.3,0.6,0.3,1.1c0,0.3-0.1,0.6-0.2,0.9c-0.1,0.2-0.3,0.4-0.5,0.6c-0.2,0.2-0.4,0.3-0.7,0.3C76.1,39,75.7,39,75.4,39
				c-0.4,0-0.8,0-1.1-0.1c-0.3-0.1-0.5-0.2-0.7-0.4c-0.2-0.2-0.3-0.4-0.4-0.6c-0.1-0.2-0.1-0.5-0.1-0.8v-0.2h1.4V37.1z"/>
		</g>
		<g>
			<path fill="#231F20" d="M82.6,36.6c0,0.2,0,0.4,0,0.5c0,0.2,0.1,0.3,0.2,0.4c0.1,0.1,0.2,0.2,0.3,0.3c0.1,0.1,0.3,0.1,0.5,0.1
				c0.3,0,0.5-0.1,0.7-0.2c0.2-0.2,0.3-0.4,0.3-0.8c0-0.2,0-0.3-0.1-0.5c-0.1-0.1-0.1-0.3-0.2-0.4c-0.1-0.1-0.3-0.2-0.5-0.3
				c-0.2-0.1-0.4-0.2-0.7-0.3c-0.4-0.1-0.7-0.3-0.9-0.4c-0.3-0.1-0.5-0.3-0.7-0.5c-0.2-0.2-0.3-0.4-0.4-0.7
				c-0.1-0.3-0.1-0.6-0.1-0.9c0-0.8,0.2-1.4,0.7-1.8c0.4-0.4,1.1-0.6,1.9-0.6c0.4,0,0.7,0,1,0.1c0.3,0.1,0.6,0.2,0.8,0.4
				c0.2,0.2,0.4,0.4,0.5,0.7c0.1,0.3,0.2,0.6,0.2,1V33h-1.6c0-0.4-0.1-0.7-0.2-0.9c-0.1-0.2-0.4-0.3-0.7-0.3c-0.2,0-0.3,0-0.5,0.1
				c-0.1,0.1-0.2,0.1-0.3,0.2c-0.1,0.1-0.1,0.2-0.1,0.3c0,0.1,0,0.2,0,0.4c0,0.3,0.1,0.5,0.2,0.6c0.1,0.2,0.3,0.3,0.7,0.5l1.3,0.5
				c0.3,0.1,0.6,0.3,0.8,0.4c0.2,0.1,0.4,0.3,0.5,0.5c0.1,0.2,0.2,0.4,0.2,0.6c0,0.2,0.1,0.4,0.1,0.7c0,0.9-0.2,1.5-0.7,1.9
				c-0.5,0.4-1.2,0.6-2.1,0.6c-0.9,0-1.6-0.2-2-0.6c-0.4-0.4-0.6-1-0.6-1.7v-0.3h1.6V36.6z"/>
		</g>
		<g>
			<path fill="#231F20" d="M90.1,34.5c0-0.1-0.1-0.3-0.1-0.4c0-0.1-0.1-0.2-0.2-0.3c-0.1-0.1-0.2-0.1-0.4-0.1c-0.2,0-0.3,0-0.5,0.1
				c-0.1,0.1-0.2,0.2-0.3,0.4c-0.1,0.2-0.1,0.4-0.1,0.7c0,0.3,0,0.6,0,0.9c0,0.4,0,0.7,0,1c0,0.3,0.1,0.5,0.1,0.7
				c0.1,0.2,0.1,0.3,0.3,0.4C89,38,89.2,38,89.4,38c0.3,0,0.5-0.1,0.6-0.3c0.1-0.2,0.2-0.6,0.2-1.1h1.5c0,0.8-0.2,1.4-0.5,1.8
				c-0.4,0.4-1,0.6-1.8,0.6c-0.4,0-0.7,0-1-0.1c-0.3-0.1-0.5-0.3-0.7-0.5c-0.2-0.2-0.3-0.6-0.4-1c-0.1-0.4-0.1-0.9-0.1-1.5
				c0-0.6,0.1-1.2,0.2-1.6c0.1-0.4,0.3-0.7,0.5-1c0.2-0.2,0.5-0.4,0.8-0.5c0.3-0.1,0.6-0.1,1-0.1c0.7,0,1.3,0.2,1.7,0.6
				c0.4,0.4,0.6,1,0.6,1.7h-1.5C90.1,34.8,90.1,34.7,90.1,34.5z"/>
		</g>
		<g>
			<path fill="#231F20" d="M94.1,30.6V32h-1.6v-1.3H94.1z M94.1,32.8v6.2h-1.6v-6.2H94.1z"/>
		</g>
		<g>
			<path fill="#231F20" d="M96.6,36.6c0,0.2,0,0.4,0,0.5c0,0.2,0.1,0.3,0.1,0.5c0.1,0.1,0.1,0.2,0.2,0.3c0.1,0.1,0.2,0.1,0.4,0.1
				c0.3,0,0.5-0.1,0.6-0.3c0.1-0.2,0.2-0.5,0.3-0.9h1.4c0,0.7-0.2,1.3-0.6,1.6c-0.4,0.4-0.9,0.6-1.7,0.6c-0.6,0-1-0.1-1.3-0.3
				c-0.3-0.2-0.6-0.4-0.7-0.8c-0.2-0.3-0.2-0.7-0.3-1.1c0-0.4-0.1-0.8-0.1-1.2c0-0.4,0-0.8,0.1-1.2c0.1-0.4,0.2-0.7,0.3-1
				c0.2-0.3,0.4-0.5,0.7-0.7c0.3-0.2,0.7-0.3,1.3-0.3c0.5,0,0.8,0.1,1.1,0.2c0.3,0.1,0.5,0.4,0.7,0.6c0.2,0.3,0.3,0.6,0.3,1
				c0.1,0.4,0.1,0.8,0.1,1.3v0.4h-3.1V36.6z M98.1,34.5c0-0.2-0.1-0.3-0.1-0.5c-0.1-0.1-0.1-0.2-0.2-0.3c-0.1-0.1-0.2-0.1-0.4-0.1
				c-0.2,0-0.3,0-0.4,0.1c-0.1,0.1-0.2,0.2-0.2,0.3c-0.1,0.1-0.1,0.2-0.1,0.4c0,0.1,0,0.3,0,0.4v0.2h1.6
				C98.2,34.9,98.1,34.7,98.1,34.5z"/>
		</g>
		<g>
			<path fill="#231F20" d="M102,32.8v0.7h0c0.2-0.3,0.4-0.5,0.7-0.7c0.3-0.1,0.6-0.2,0.9-0.2c0.5,0,0.9,0.1,1.2,0.4
				c0.3,0.3,0.4,0.7,0.4,1.3v4.6h-1.6v-4.2c0-0.3-0.1-0.5-0.2-0.7c-0.1-0.1-0.3-0.2-0.5-0.2c-0.6,0-0.8,0.3-0.8,1v4.1h-1.6v-6.2H102
				z"/>
		</g>
		<g>
			<path fill="#231F20" d="M109.2,34.5c0-0.1-0.1-0.3-0.1-0.4c0-0.1-0.1-0.2-0.2-0.3c-0.1-0.1-0.2-0.1-0.4-0.1c-0.2,0-0.3,0-0.5,0.1
				c-0.1,0.1-0.2,0.2-0.3,0.4c-0.1,0.2-0.1,0.4-0.1,0.7c0,0.3,0,0.6,0,0.9c0,0.4,0,0.7,0,1c0,0.3,0.1,0.5,0.1,0.7
				c0.1,0.2,0.1,0.3,0.3,0.4c0.1,0.1,0.3,0.1,0.4,0.1c0.3,0,0.5-0.1,0.6-0.3c0.1-0.2,0.2-0.6,0.2-1.1h1.5c0,0.8-0.2,1.4-0.5,1.8
				c-0.4,0.4-1,0.6-1.8,0.6c-0.4,0-0.7,0-1-0.1c-0.3-0.1-0.5-0.3-0.7-0.5c-0.2-0.2-0.3-0.6-0.4-1c-0.1-0.4-0.1-0.9-0.1-1.5
				c0-0.6,0.1-1.2,0.2-1.6c0.1-0.4,0.3-0.7,0.5-1c0.2-0.2,0.5-0.4,0.8-0.5c0.3-0.1,0.6-0.1,1-0.1c0.7,0,1.3,0.2,1.7,0.6
				c0.4,0.4,0.6,1,0.6,1.7h-1.5C109.2,34.8,109.2,34.7,109.2,34.5z"/>
		</g>
		<g>
			<path fill="#231F20" d="M112.9,36.6c0,0.2,0,0.4,0,0.5c0,0.2,0.1,0.3,0.1,0.5c0.1,0.1,0.1,0.2,0.2,0.3c0.1,0.1,0.2,0.1,0.4,0.1
				c0.3,0,0.5-0.1,0.6-0.3c0.1-0.2,0.2-0.5,0.3-0.9h1.4c0,0.7-0.2,1.3-0.6,1.6c-0.4,0.4-0.9,0.6-1.7,0.6c-0.6,0-1-0.1-1.3-0.3
				c-0.3-0.2-0.6-0.4-0.7-0.8c-0.2-0.3-0.2-0.7-0.3-1.1c0-0.4-0.1-0.8-0.1-1.2c0-0.4,0-0.8,0.1-1.2c0.1-0.4,0.2-0.7,0.3-1
				c0.2-0.3,0.4-0.5,0.7-0.7c0.3-0.2,0.7-0.3,1.3-0.3c0.5,0,0.8,0.1,1.1,0.2c0.3,0.1,0.5,0.4,0.7,0.6c0.2,0.3,0.3,0.6,0.3,1
				c0.1,0.4,0.1,0.8,0.1,1.3v0.4h-3.1V36.6z M114.4,34.5c0-0.2-0.1-0.3-0.1-0.5c-0.1-0.1-0.1-0.2-0.2-0.3c-0.1-0.1-0.2-0.1-0.4-0.1
				c-0.2,0-0.3,0-0.4,0.1c-0.1,0.1-0.2,0.2-0.2,0.3c-0.1,0.1-0.1,0.2-0.1,0.4c0,0.1,0,0.3,0,0.4v0.2h1.6
				C114.5,34.9,114.5,34.7,114.4,34.5z"/>
		</g>
		<g>
			<path fill="#231F20" d="M44.7,43.9h-1.8v6.8h-1.6v-6.8h-1.8v-1.3h5.2V43.9z"/>
		</g>
		<g>
			<path fill="#231F20" d="M45.8,48.3c0,0.2,0,0.4,0,0.5c0,0.2,0.1,0.3,0.1,0.5c0.1,0.1,0.1,0.2,0.2,0.3c0.1,0.1,0.2,0.1,0.4,0.1
				c0.3,0,0.5-0.1,0.6-0.3c0.1-0.2,0.2-0.5,0.3-0.9h1.4c0,0.7-0.2,1.3-0.6,1.6c-0.4,0.4-0.9,0.6-1.7,0.6c-0.6,0-1-0.1-1.3-0.3
				c-0.3-0.2-0.6-0.4-0.7-0.8c-0.2-0.3-0.2-0.7-0.3-1.1c0-0.4-0.1-0.8-0.1-1.2c0-0.4,0-0.8,0.1-1.2c0.1-0.4,0.2-0.7,0.3-1
				c0.2-0.3,0.4-0.5,0.7-0.7c0.3-0.2,0.7-0.3,1.3-0.3c0.5,0,0.8,0.1,1.1,0.2c0.3,0.1,0.5,0.4,0.7,0.6c0.2,0.3,0.3,0.6,0.3,1
				c0.1,0.4,0.1,0.8,0.1,1.3v0.4h-3.1V48.3z M47.4,46.3c0-0.2-0.1-0.3-0.1-0.5c-0.1-0.1-0.1-0.2-0.2-0.3c-0.1-0.1-0.2-0.1-0.4-0.1
				c-0.2,0-0.3,0-0.4,0.1c-0.1,0.1-0.2,0.2-0.2,0.3c-0.1,0.1-0.1,0.2-0.1,0.4c0,0.1,0,0.3,0,0.4v0.2h1.6
				C47.4,46.7,47.4,46.5,47.4,46.3z"/>
		</g>
		<g>
			<path fill="#231F20" d="M49.8,46.3c0-0.4,0.1-0.7,0.2-0.9c0.1-0.2,0.3-0.4,0.5-0.6c0.2-0.1,0.4-0.3,0.7-0.3
				c0.3-0.1,0.5-0.1,0.8-0.1c0.5,0,0.9,0,1.1,0.1c0.3,0.1,0.5,0.2,0.7,0.4c0.2,0.2,0.3,0.4,0.3,0.6c0.1,0.2,0.1,0.5,0.1,0.8v3.2
				c0,0.3,0,0.5,0,0.7c0,0.2,0.1,0.3,0.2,0.5h-1.5c-0.1-0.1-0.1-0.2-0.1-0.3c0-0.1-0.1-0.2-0.1-0.3h0c-0.2,0.3-0.4,0.5-0.6,0.6
				c-0.2,0.1-0.6,0.1-0.9,0.1c-0.3,0-0.5,0-0.7-0.1c-0.2-0.1-0.3-0.2-0.5-0.4c-0.1-0.2-0.2-0.4-0.3-0.6c-0.1-0.2-0.1-0.4-0.1-0.6
				c0-0.3,0-0.5,0.1-0.7c0.1-0.2,0.2-0.4,0.3-0.5c0.1-0.1,0.3-0.3,0.5-0.4c0.2-0.1,0.4-0.2,0.7-0.3l0.9-0.2c0.2-0.1,0.4-0.1,0.5-0.3
				c0.1-0.1,0.1-0.3,0.1-0.5c0-0.2-0.1-0.4-0.2-0.6c-0.1-0.1-0.3-0.2-0.6-0.2c-0.2,0-0.4,0.1-0.5,0.2c-0.1,0.1-0.2,0.3-0.2,0.6v0.2
				h-1.4V46.3z M52.3,47.8c-0.1,0-0.2,0.1-0.3,0.1c-0.3,0.1-0.5,0.2-0.7,0.3c-0.1,0.2-0.2,0.4-0.2,0.7c0,0.2,0,0.4,0.1,0.6
				c0.1,0.2,0.2,0.3,0.5,0.3c0.1,0,0.2,0,0.3-0.1c0.1,0,0.2-0.1,0.3-0.2c0.1-0.1,0.2-0.2,0.2-0.3c0.1-0.1,0.1-0.3,0.1-0.4v-1.2
				C52.5,47.7,52.4,47.8,52.3,47.8z"/>
		</g>
		<g>
			<path fill="#231F20" d="M58.2,46.3c0-0.1-0.1-0.3-0.1-0.4c0-0.1-0.1-0.2-0.2-0.3c-0.1-0.1-0.2-0.1-0.4-0.1c-0.2,0-0.3,0-0.5,0.1
				c-0.1,0.1-0.2,0.2-0.3,0.4c-0.1,0.2-0.1,0.4-0.1,0.7c0,0.3,0,0.6,0,0.9c0,0.4,0,0.7,0,1c0,0.3,0.1,0.5,0.1,0.7
				c0.1,0.2,0.1,0.3,0.3,0.4c0.1,0.1,0.3,0.1,0.4,0.1c0.3,0,0.5-0.1,0.6-0.3c0.1-0.2,0.2-0.6,0.2-1.1h1.5c0,0.8-0.2,1.4-0.5,1.8
				c-0.4,0.4-1,0.6-1.8,0.6c-0.4,0-0.7,0-1-0.1c-0.3-0.1-0.5-0.3-0.7-0.5c-0.2-0.2-0.3-0.6-0.4-1c-0.1-0.4-0.1-0.9-0.1-1.5
				c0-0.6,0.1-1.2,0.2-1.6c0.1-0.4,0.3-0.7,0.5-1c0.2-0.2,0.5-0.4,0.8-0.5c0.3-0.1,0.6-0.1,1-0.1c0.7,0,1.3,0.2,1.7,0.6
				c0.4,0.4,0.6,1,0.6,1.7h-1.5C58.2,46.6,58.2,46.4,58.2,46.3z"/>
		</g>
		<g>
			<path fill="#231F20" d="M62.2,42.5v2.6h0c0.3-0.5,0.8-0.8,1.5-0.8c0.5,0,0.9,0.1,1.2,0.4c0.3,0.3,0.4,0.7,0.4,1.3v4.6h-1.6v-4.2
				c0-0.3-0.1-0.5-0.2-0.7c-0.1-0.1-0.3-0.2-0.5-0.2c-0.6,0-0.8,0.3-0.8,1v4.1h-1.6v-8.2H62.2z"/>
		</g>
		<g>
			<path fill="#231F20" d="M67.9,42.4v1.3h-1.6v-1.3H67.9z M67.9,44.5v6.2h-1.6v-6.2H67.9z"/>
		</g>
		<g>
			<path fill="#231F20" d="M70.6,44.5v0.7h0c0.2-0.3,0.4-0.5,0.7-0.7c0.3-0.1,0.6-0.2,0.9-0.2c0.5,0,0.9,0.1,1.2,0.4
				c0.3,0.3,0.4,0.7,0.4,1.3v4.6h-1.6v-4.2c0-0.3-0.1-0.5-0.2-0.7c-0.1-0.1-0.3-0.2-0.5-0.2c-0.6,0-0.8,0.3-0.8,1v4.1H69v-6.2H70.6z
				"/>
		</g>
		<g>
			<path fill="#231F20" d="M79.4,50.4c0,0.8-0.2,1.4-0.6,1.8c-0.4,0.4-1.1,0.6-2,0.6c-0.7,0-1.2-0.1-1.6-0.4
				c-0.4-0.3-0.5-0.7-0.5-1.2h1.5c0,0.2,0.1,0.4,0.2,0.5c0.1,0.1,0.2,0.1,0.2,0.1c0.1,0,0.2,0,0.3,0c0.3,0,0.5-0.1,0.7-0.3
				c0.1-0.2,0.2-0.5,0.2-0.8v-0.8h0c-0.2,0.2-0.4,0.4-0.6,0.5c-0.2,0.1-0.5,0.2-0.7,0.2c-0.6,0-1.1-0.2-1.4-0.7
				c-0.3-0.5-0.5-1.3-0.5-2.4c0-0.4,0-0.7,0.1-1.1c0-0.4,0.1-0.7,0.3-1c0.1-0.3,0.3-0.5,0.6-0.7c0.3-0.2,0.6-0.3,1-0.3
				c0.2,0,0.4,0.1,0.7,0.2c0.2,0.1,0.4,0.3,0.6,0.7h0v-0.7h1.5V50.4z M76.2,48.4c0,0.2,0.1,0.4,0.1,0.5c0.1,0.1,0.1,0.3,0.2,0.4
				c0.1,0.1,0.2,0.1,0.4,0.1c0.2,0,0.3,0,0.4-0.1c0.1-0.1,0.2-0.2,0.3-0.4c0.1-0.2,0.1-0.3,0.1-0.6c0-0.2,0-0.5,0-0.7
				c0-0.7-0.1-1.3-0.2-1.6c-0.1-0.3-0.3-0.5-0.6-0.5c-0.2,0-0.3,0-0.4,0.1c-0.1,0.1-0.2,0.2-0.3,0.4c-0.1,0.2-0.1,0.4-0.1,0.7
				c0,0.3,0,0.6,0,1C76.2,48,76.2,48.2,76.2,48.4z"/>
		</g>
		<g>
			<path fill="#231F20" d="M87.8,42.5v1.3h-2.9v1.9h2.7v1.3h-2.7v3.5h-1.6v-8.2H87.8z"/>
		</g>
		<g>
			<path fill="#231F20" d="M88.2,46.2c0.1-0.4,0.2-0.7,0.4-1c0.2-0.3,0.4-0.5,0.7-0.6c0.3-0.1,0.7-0.2,1.1-0.2
				c0.5,0,0.9,0.1,1.2,0.2c0.3,0.1,0.6,0.3,0.7,0.6c0.2,0.3,0.3,0.6,0.4,1c0.1,0.4,0.1,0.9,0.1,1.4c0,0.5,0,1-0.1,1.4
				c-0.1,0.4-0.2,0.7-0.4,1c-0.2,0.3-0.4,0.5-0.7,0.6c-0.3,0.1-0.7,0.2-1.1,0.2c-0.5,0-0.9-0.1-1.2-0.2c-0.3-0.1-0.6-0.3-0.7-0.6
				c-0.2-0.3-0.3-0.6-0.4-1c-0.1-0.4-0.1-0.9-0.1-1.4C88.1,47.1,88.1,46.6,88.2,46.2z M89.7,48.5c0,0.3,0.1,0.5,0.1,0.7
				c0.1,0.2,0.1,0.3,0.3,0.4c0.1,0.1,0.3,0.2,0.5,0.2c0.3,0,0.5-0.2,0.7-0.5c0.1-0.3,0.2-0.9,0.2-1.7c0-0.8-0.1-1.3-0.2-1.7
				c-0.1-0.3-0.3-0.5-0.7-0.5c-0.2,0-0.3,0.1-0.5,0.2c-0.1,0.1-0.2,0.3-0.3,0.4c-0.1,0.2-0.1,0.4-0.1,0.7c0,0.3,0,0.6,0,0.9
				C89.7,47.9,89.7,48.2,89.7,48.5z"/>
		</g>
		<g>
			<path fill="#231F20" d="M96.9,50c-0.2,0.3-0.4,0.5-0.7,0.7c-0.3,0.1-0.6,0.2-0.9,0.2c-0.5,0-0.9-0.1-1.2-0.4
				c-0.3-0.3-0.4-0.7-0.4-1.3v-4.6h1.6v4.2c0,0.3,0.1,0.5,0.2,0.7c0.1,0.1,0.3,0.2,0.5,0.2c0.6,0,0.8-0.3,0.8-1v-4.1h1.6v6.2h-1.5
				L96.9,50L96.9,50z"/>
		</g>
		<g>
			<path fill="#231F20" d="M101,44.5v0.7h0c0.2-0.3,0.4-0.5,0.7-0.7c0.3-0.1,0.6-0.2,0.9-0.2c0.5,0,0.9,0.1,1.2,0.4
				c0.3,0.3,0.4,0.7,0.4,1.3v4.6h-1.6v-4.2c0-0.3-0.1-0.5-0.2-0.7c-0.1-0.1-0.3-0.2-0.5-0.2c-0.6,0-0.8,0.3-0.8,1v4.1h-1.6v-6.2H101
				z"/>
		</g>
		<g>
			<path fill="#231F20" d="M108.4,50c-0.2,0.3-0.4,0.5-0.6,0.6c-0.2,0.1-0.5,0.2-0.8,0.2c-0.6,0-1.1-0.2-1.4-0.7
				c-0.3-0.5-0.5-1.3-0.5-2.5c0-1.1,0.2-2,0.5-2.5c0.3-0.5,0.8-0.8,1.4-0.8c0.3,0,0.6,0.1,0.8,0.2c0.2,0.1,0.4,0.3,0.6,0.5h0v-2.6
				h1.6v8.2h-1.5L108.4,50L108.4,50z M106.8,49.1c0.1,0.3,0.3,0.5,0.7,0.5c0.4,0,0.6-0.2,0.7-0.5c0.1-0.3,0.2-0.8,0.2-1.5
				c0-0.7-0.1-1.2-0.2-1.5c-0.1-0.3-0.3-0.5-0.7-0.5c-0.3,0-0.6,0.2-0.7,0.5c-0.1,0.3-0.2,0.8-0.2,1.5
				C106.7,48.3,106.7,48.8,106.8,49.1z"/>
		</g>
		<g>
			<path fill="#231F20" d="M110.9,46.3c0-0.4,0.1-0.7,0.2-0.9c0.1-0.2,0.3-0.4,0.5-0.6c0.2-0.1,0.4-0.3,0.7-0.3
				c0.3-0.1,0.5-0.1,0.8-0.1c0.5,0,0.9,0,1.1,0.1c0.3,0.1,0.5,0.2,0.7,0.4c0.2,0.2,0.3,0.4,0.3,0.6c0.1,0.2,0.1,0.5,0.1,0.8v3.2
				c0,0.3,0,0.5,0,0.7c0,0.2,0.1,0.3,0.2,0.5H114c-0.1-0.1-0.1-0.2-0.1-0.3c0-0.1-0.1-0.2-0.1-0.3h0c-0.2,0.3-0.4,0.5-0.6,0.6
				c-0.2,0.1-0.6,0.1-0.9,0.1c-0.3,0-0.5,0-0.7-0.1c-0.2-0.1-0.3-0.2-0.5-0.4c-0.1-0.2-0.2-0.4-0.3-0.6c-0.1-0.2-0.1-0.4-0.1-0.6
				c0-0.3,0-0.5,0.1-0.7c0.1-0.2,0.2-0.4,0.3-0.5c0.1-0.1,0.3-0.3,0.5-0.4c0.2-0.1,0.4-0.2,0.7-0.3l0.9-0.2c0.2-0.1,0.4-0.1,0.5-0.3
				c0.1-0.1,0.1-0.3,0.1-0.5c0-0.2-0.1-0.4-0.2-0.6c-0.1-0.1-0.3-0.2-0.6-0.2c-0.2,0-0.4,0.1-0.5,0.2c-0.1,0.1-0.2,0.3-0.2,0.6v0.2
				h-1.4V46.3z M113.5,47.8c-0.1,0-0.2,0.1-0.3,0.1c-0.3,0.1-0.5,0.2-0.7,0.3c-0.1,0.2-0.2,0.4-0.2,0.7c0,0.2,0,0.4,0.1,0.6
				c0.1,0.2,0.2,0.3,0.5,0.3c0.1,0,0.2,0,0.3-0.1c0.1,0,0.2-0.1,0.3-0.2c0.1-0.1,0.2-0.2,0.2-0.3c0.1-0.1,0.1-0.3,0.1-0.4v-1.2
				C113.7,47.7,113.6,47.8,113.5,47.8z"/>
		</g>
		<g>
			<path fill="#231F20" d="M118.4,42.8v1.8h0.9v1.1h-0.9v3.3c0,0.2,0,0.4,0.1,0.5c0.1,0.1,0.2,0.2,0.5,0.2c0.1,0,0.1,0,0.2,0
				c0.1,0,0.1,0,0.2,0v1.1c-0.2,0-0.3,0-0.5,0c-0.2,0-0.3,0-0.5,0c-0.3,0-0.6,0-0.7-0.1c-0.2,0-0.3-0.1-0.4-0.3
				c-0.1-0.1-0.2-0.3-0.2-0.5c0-0.2-0.1-0.5-0.1-0.8v-3.5H116v-1.1h0.8v-1.8H118.4z"/>
		</g>
		<g>
			<path fill="#231F20" d="M121.5,42.4v1.3h-1.6v-1.3H121.5z M121.5,44.5v6.2h-1.6v-6.2H121.5z"/>
		</g>
		<g>
			<path fill="#231F20" d="M122.5,46.2c0.1-0.4,0.2-0.7,0.4-1c0.2-0.3,0.4-0.5,0.7-0.6c0.3-0.1,0.7-0.2,1.1-0.2
				c0.5,0,0.9,0.1,1.2,0.2c0.3,0.1,0.6,0.3,0.7,0.6c0.2,0.3,0.3,0.6,0.4,1c0.1,0.4,0.1,0.9,0.1,1.4c0,0.5,0,1-0.1,1.4
				c-0.1,0.4-0.2,0.7-0.4,1c-0.2,0.3-0.4,0.5-0.7,0.6c-0.3,0.1-0.7,0.2-1.1,0.2c-0.5,0-0.9-0.1-1.2-0.2c-0.3-0.1-0.6-0.3-0.7-0.6
				c-0.2-0.3-0.3-0.6-0.4-1c-0.1-0.4-0.1-0.9-0.1-1.4C122.4,47.1,122.4,46.6,122.5,46.2z M124,48.5c0,0.3,0.1,0.5,0.1,0.7
				c0.1,0.2,0.1,0.3,0.3,0.4c0.1,0.1,0.3,0.2,0.5,0.2c0.3,0,0.5-0.2,0.7-0.5c0.1-0.3,0.2-0.9,0.2-1.7c0-0.8-0.1-1.3-0.2-1.7
				c-0.1-0.3-0.3-0.5-0.7-0.5c-0.2,0-0.3,0.1-0.5,0.2c-0.1,0.1-0.2,0.3-0.3,0.4c-0.1,0.2-0.1,0.4-0.1,0.7c0,0.3,0,0.6,0,0.9
				C124,47.9,124,48.2,124,48.5z"/>
		</g>
		<g>
			<path fill="#231F20" d="M129.6,44.5v0.7h0c0.2-0.3,0.4-0.5,0.7-0.7c0.3-0.1,0.6-0.2,0.9-0.2c0.5,0,0.9,0.1,1.2,0.4
				c0.3,0.3,0.4,0.7,0.4,1.3v4.6h-1.6v-4.2c0-0.3-0.1-0.5-0.2-0.7c-0.1-0.1-0.3-0.2-0.5-0.2c-0.6,0-0.8,0.3-0.8,1v4.1h-1.6v-6.2
				H129.6z"/>
		</g>
	</g>
</g>
</svg>
