<?xml version="1.0" encoding="UTF-8" standalone="no"?>
<!-- Generator: Adobe Illustrator 18.1.1, SVG Export Plug-In . SVG Version: 6.00 Build 0)  -->

<svg
   xmlns:dc="http://purl.org/dc/elements/1.1/"
   xmlns:cc="http://creativecommons.org/ns#"
   xmlns:rdf="http://www.w3.org/1999/02/22-rdf-syntax-ns#"
   xmlns:svg="http://www.w3.org/2000/svg"
   xmlns="http://www.w3.org/2000/svg"
   xmlns:sodipodi="http://sodipodi.sourceforge.net/DTD/sodipodi-0.dtd"
   xmlns:inkscape="http://www.inkscape.org/namespaces/inkscape"
   version="1.1"
   id="Layer_1"
   x="0px"
   y="0px"
   viewBox="0 0 411.7 572.1"
   preserveAspectRatio="xMinYMax"
   enable-background="new 0 0 612 792"
   xml:space="preserve"
   inkscape:version="0.48.4 r9939"
   width="100%"
   height="100%"
   sodipodi:docname="kstf-icon-logo_flush.svg"><metadata
     id="metadata213"><rdf:RDF><cc:Work
         rdf:about=""><dc:format>image/svg+xml</dc:format><dc:type
           rdf:resource="http://purl.org/dc/dcmitype/StillImage" /></cc:Work></rdf:RDF></metadata><defs
     id="defs211" /><sodipodi:namedview
     pagecolor="#ffffff"
     bordercolor="#666666"
     borderopacity="1"
     objecttolerance="10"
     gridtolerance="10"
     guidetolerance="10"
     inkscape:pageopacity="0"
     inkscape:pageshadow="2"
     inkscape:window-width="1047"
     inkscape:window-height="997"
     id="namedview209"
     showgrid="false"
     fit-margin-top="0"
     fit-margin-left="0"
     fit-margin-right="0"
     fit-margin-bottom="0"
     inkscape:zoom="0.69"
     inkscape:cx="306"
     inkscape:cy="396"
     inkscape:window-x="65"
     inkscape:window-y="34"
     inkscape:window-maximized="0"
     inkscape:current-layer="Layer_1" /><g
     id="g3"
     transform="translate(-106.1,-107.9)"><g
       id="g5"><g
         id="g7"><g
           id="g9"><path
             d="M 222.4,595.1 H 390 c 0,0 -15.1,47.7 -44.9,60 -30.5,12.6 -99.9,20 -122.7,-60 z"
             id="path11"
             inkscape:connector-curvature="0"
             style="fill:#82b641" /></g></g></g><g
       id="g13"><g
         id="g15"><g
           id="g17"><polyline
             points="390,214 213.8,493.1 389.2,598.8     "
             id="polyline19"
             style="fill:#56a3da" /></g></g></g><g
       id="g21"><g
         id="g23"><g
           id="g25"><path
             d="m 216.6,485.4 5.7,-4.9 c -0.8,0 -9.4,-2.9 -16.3,0.8 -2,2 -4.9,4.9 -5.7,10.6 -0.8,9.4 6.5,17.1 17.1,18 10.6,0.8 22,-4.9 24.9,-22 2,-13.5 -4.9,-26.5 -18,-35.1 -14.3,-8.6 -37.1,-11.4 -60,6.5 -20,16.3 -28.6,49.4 -19.2,77.9 11.4,35.1 46.5,57.1 96.3,57.9 46.5,0.8 87.7,-17.1 116.3,-51.4 31.4,-39.2 43.7,-94.2 31.4,-144 -8.6,-34.3 -27.7,-84 -74.3,-124 -43.7,-37.9 -101.2,-60 -170.5,-63.6 l -0.8,9.4 c 66.5,3.7 122.8,23.7 164.8,60.8 43.7,39.2 62.8,85.7 70.6,119.1 11.4,46.5 0,99.1 -29.4,136.3 -18,22.8 -52.2,49.4 -108.5,48.6 -62,-2 -81.2,-33.5 -87.7,-51.4 -8.6,-24.9 -0.8,-54.3 15.1,-67.7 19.2,-14.3 37.1,-12.2 48.6,-5.7 9.4,5.7 15.1,16.3 13.5,24.9 -2,11.4 -8.6,14.3 -14.3,13.5 -4.9,-0.8 -8.6,-3.7 -8.6,-8.6 0,-2 0.8,-2.9 0.8,-2.9 2,-0.8 5.7,-0.8 7.8,0 l 6.5,2 v -6.5"
             id="path27"
             inkscape:connector-curvature="0"
             style="fill:#f2f2f2" /></g><g
           id="g29"><line
             x1="226"
             y1="186.3"
             x2="216.60001"
             y2="186.3"
             id="line31"
             style="fill:none" /></g></g></g><g
       id="g33"><g
         id="g35"><g
           id="g37"><path
             d="m 386.4,187.5 c 0,9.4 -30.6,22.8 -80,22.8 -49.4,0 -80,-13.5 -80,-22.8 0,-9.3 30.6,-22.8 80,-22.8 49.4,0.8 80,14.2 80,22.8 z M 306,154.9 c -43.7,0 -89.8,11.4 -89.8,32.2 0,20.8 46.5,32.2 89.8,32.2 43.7,0 89.8,-11.4 89.8,-32.2 0,-20.8 -46.6,-32.2 -89.8,-32.2 z"
             id="path39"
             inkscape:connector-curvature="0"
             style="fill:#f2f2f2" /></g></g></g><g
       id="g41"><g
         id="g43"><g
           id="g45"><path
             d="m 386.4,187.5 v 387.6 c 0,46.5 -37.1,85.7 -82,85.7 -37.9,0 -72.2,-28.6 -80,-66.5 l -9.4,2 c 0.8,2 0.8,4.9 2,6.5 v 0.8 c 11.4,39.2 47.7,66.5 87.7,66.5 50.6,0 91.4,-42.8 91.4,-95.5 V 187.1 h -9.8 v 0.4 z"
             id="path47"
             inkscape:connector-curvature="0"
             style="fill:#f2f2f2" /></g></g></g><g
       id="g49"><g
         id="g51"><g
           id="g53"><g
             id="g55"><polygon
               points="435.7,138.6 111,648.6 113.8,650.6 437.8,140.6 "
               id="polygon57"
               style="fill:#f2f2f2" /><polygon
               points="114.6,655.1 106.1,649.4 433.7,134.1 443.5,139.8 "
               id="polygon59"
               style="fill:#f2f2f2" /></g></g></g><g
         id="g61"><g
           id="g63"><g
             id="g65"><rect
               x="78.300003"
               y="550.20001"
               transform="matrix(-0.8526,-0.5226,0.5226,-0.8526,290.9752,1185.2667)"
               width="468.79999"
               height="2.9000001"
               id="rect67"
               style="fill:#f2f2f2" /><polygon
               points="111.8,422.5 115.5,424.6 517.8,671.4 512,680 106.9,431.1 "
               id="polygon69"
               style="fill:#f2f2f2" /></g></g></g><g
         id="g71"><g
           id="g73"><g
             id="g75"><polygon
               points="387.2,595.9 387.2,593.1 145.2,593.1 146.1,595.1 146.1,185.5 143.2,185.5 143.2,595.1 143.2,595.9 145.2,595.9 "
               id="polygon77"
               style="fill:#f2f2f2" /></g><g
             id="g79"><polygon
               points="138.3,593.1 138.3,589.4 138.3,181.8 151,181.8 151,589.4 390.9,589.4 390.9,600.8 151,600.8 146.1,600.8 138.3,600.8 "
               id="polygon81"
               style="fill:#f2f2f2" /></g></g></g><g
         id="g83"><g
           id="g85"><g
             id="g87"><rect
               x="145.2"
               y="448.20001"
               width="246.8"
               height="2.9000001"
               id="rect89"
               style="fill:#f2f2f2" /><path
               d="M 393.7,453.1 H 144 v -6.5 h 249.7 v 6.5 z M 146.9,449.4 H 390 l 0,0 H 146.9 l 0,0 z"
               id="path91"
               inkscape:connector-curvature="0"
               style="fill:#f2f2f2" /></g></g></g><g
         id="g93"><g
           id="g95"><g
             id="g97"><rect
               x="148.89999"
               y="496"
               width="67.699997"
               height="2.9000001"
               id="rect99"
               style="fill:#f2f2f2" /><rect
               x="146.10001"
               y="493.10001"
               width="74.300003"
               height="10.6"
               id="rect101"
               style="fill:#f2f2f2" /></g></g></g></g><g
       id="g103"><g
         id="g105"><g
           id="g107"><g
             id="g109"><path
               d="m 265.2,353.2 c 0,5.7 -4.9,9.4 -9.4,9.4 l 0,0 c -5.7,0 -9.4,-4.9 -9.4,-9.4 l 0,0 c 0,-5.7 4.9,-9.4 9.4,-9.4 l 0,0 c 4.5,-1.2 9.4,3.6 9.4,9.4 l 0,0 z"
               id="path111"
               inkscape:connector-curvature="0"
               style="fill:#e73c93" /></g></g></g><g
         id="g113"><g
           id="g115"><g
             id="g117"><path
               d="m 294.6,297.7 c 0,9.4 -7.8,17.1 -17.1,17.1 l 0,0 c -9.4,0 -17.1,-7.8 -17.1,-17.1 l 0,0 c 0,-9.4 7.8,-17.1 17.1,-17.1 l 0,0 c 9.7,-0.1 17.1,7.7 17.1,17.1 l 0,0 z"
               id="path119"
               inkscape:connector-curvature="0"
               style="fill:#e73c93" /></g></g></g><g
         id="g121"><g
           id="g123"><g
             id="g125"><path
               d="m 253.8,274.8 c 0,3.7 -2.9,6.5 -6.5,6.5 l 0,0 c -3.7,0 -6.5,-2.9 -6.5,-6.5 l 0,0 c 0,-3.7 2.9,-6.5 6.5,-6.5 l 0,0 c 3.6,0 6.5,2.9 6.5,6.5 l 0,0 z"
               id="path127"
               inkscape:connector-curvature="0"
               style="fill:#e73c93" /></g></g></g><g
         id="g129"><g
           id="g131"><g
             id="g133"><path
               d="m 333.7,191.2 c 0,3.7 -2.9,6.5 -6.5,6.5 l 0,0 c -3.7,0 -6.5,-2.9 -6.5,-6.5 l 0,0 c 0,-3.7 2.9,-6.5 6.5,-6.5 l 0,0 c 3.7,0 6.5,2.8 6.5,6.5 l 0,0 z"
               id="path135"
               inkscape:connector-curvature="0"
               style="fill:#e73c93" /></g></g></g><g
         id="g137"><g
           id="g139"><g
             id="g141"><path
               d="m 258.7,187.5 c 0,2 -2,3.7 -3.7,3.7 l 0,0 c -2,0 -3.7,-2 -3.7,-3.7 l 0,0 c 0,-2 2,-3.7 3.7,-3.7 l 0,0 c 2.4,-0.4 3.7,1.7 3.7,3.7 l 0,0 z"
               id="path143"
               inkscape:connector-curvature="0"
               style="fill:#e73c93" /></g></g></g><g
         id="g145"><g
           id="g147"><g
             id="g149"><path
               d="m 306,187.5 c 0,7.8 -5.7,13.5 -13.5,13.5 l 0,0 c -7.8,0 -13.5,-5.7 -13.5,-13.5 l 0,0 c 0,-7.8 5.7,-13.5 13.5,-13.5 l 0,0 c 7.8,0 13.5,5.8 13.5,13.5 l 0,0 z"
               id="path151"
               inkscape:connector-curvature="0"
               style="fill:#e73c93" /></g></g></g><g
         id="g153"><g
           id="g155"><g
             id="g157"><path
               d="m 321.5,250.3 c 0,2.9 -2.9,5.7 -5.7,5.7 l 0,0 c -2.9,0 -5.7,-2.9 -5.7,-5.7 l 0,0 c 0,-2.9 2.9,-5.7 5.7,-5.7 l 0,0 c 2.8,0 5.7,1.7 5.7,5.7 l 0,0 z"
               id="path159"
               inkscape:connector-curvature="0"
               style="fill:#e73c93" /></g></g></g><g
         id="g161"><g
           id="g163"><g
             id="g165"><path
               d="m 283.2,127.1 c 0,10.6 -8.6,19.2 -19.2,19.2 l 0,0 c -10.6,0 -19.2,-8.6 -19.2,-19.2 l 0,0 c 0,-10.6 8.6,-19.2 19.2,-19.2 l 0,0 c 10.6,0.5 19.2,9 19.2,19.2 l 0,0 z"
               id="path167"
               inkscape:connector-curvature="0"
               style="fill:#e73c93" /></g></g></g></g><g
       id="g169"><g
         id="g171"><g
           id="g173"><path
             d="m 332.9,364.6 c 0,3.7 -3.7,7.8 -7.8,7.8 l 0,0 c -3.7,0 -7.8,-3.7 -7.8,-7.8 l 0,0 c 0,-3.7 3.7,-7.8 7.8,-7.8 l 0,0 c 3.7,0 7.8,2.9 7.8,7.8 l 0,0 z"
             id="path175"
             inkscape:connector-curvature="0"
             style="fill:#fffffe" /></g></g></g><g
       id="g177"><g
         id="g179"><g
           id="g181"><path
             d="m 310.9,396.8 c 0,5.7 -4.9,11.4 -11.4,11.4 l 0,0 c -6.5,0 -11.4,-4.9 -11.4,-11.4 l 0,0 c 0,-6.5 4.9,-11.4 11.4,-11.4 l 0,0 c 6.5,0 11.4,4.9 11.4,11.4 l 0,0 z"
             id="path183"
             inkscape:connector-curvature="0"
             style="fill:#fffffe" /></g></g></g><g
       id="g185"><g
         id="g187"><g
           id="g189"><path
             d="m 335.8,400.9 c 0,2.9 -2,4.9 -4.9,4.9 l 0,0 c -2,0 -3.7,-2 -3.7,-4.9 l 0,0 c 0,-2 2,-3.7 3.7,-3.7 l 0,0 c 2.8,-0.4 4.9,1.7 4.9,3.7 l 0,0 z"
             id="path191"
             inkscape:connector-curvature="0"
             style="fill:#fffffe" /></g></g></g><g
       id="g193"><g
         id="g195"><g
           id="g197"><path
             d="m 303.1,483.7 c 0,2 -2,4.9 -4.9,4.9 l 0,0 c -2,0 -4.9,-2 -4.9,-4.9 l 0,0 c 0,-2 2,-3.7 4.9,-3.7 l 0,0 c 3.3,-1.2 4.9,0.9 4.9,3.7 l 0,0 z"
             id="path199"
             inkscape:connector-curvature="0"
             style="fill:#fffffe" /></g></g></g><g
       id="g201"><g
         id="g203"><g
           id="g205"><rect
             x="216.60001"
             y="191.2"
             width="9.3999996"
             height="412.5"
             id="rect207"
             style="fill:#f2f2f2" /></g></g></g></g></svg>
